<?xml version="1.0" encoding="UTF-8"?>
<svg width="140px" height="140px" viewBox="0 0 140 140" version="1.1" xmlns="http://www.w3.org/2000/svg" xmlns:xlink="http://www.w3.org/1999/xlink">
    <!-- Generator: Sketch 52.6 (67491) - http://www.bohemiancoding.com/sketch -->
    <title>Logo Copy</title>
    <desc>Created with Sketch.</desc>
    <defs>
        <linearGradient x1="95.8334353%" y1="95.9942617%" x2="9.82363936%" y2="50%" id="linearGradient-1">
            <stop stop-color="#00D6EE" offset="0%"></stop>
            <stop stop-color="#00ADD8" offset="100%"></stop>
        </linearGradient>
    </defs>
    <g id="Logo-Copy" stroke="none" stroke-width="1" fill="none" fill-rule="evenodd">
        <path d="M40.8491192,64.9305642 L34.2714879,53.6443562 C25.6561033,50.8713307 19.8246015,45.9029935 16.7769824,38.7393444 C14.7257004,32.2111804 12.8502425,25.6830163 11.1506088,19.1548523 C12.9674586,18.7504527 15.9857736,20.4258223 20.2055539,24.1809609 C24.3018078,27.8261747 31.6288408,39.2016651 42.1866531,58.3074321 C44.1400648,53.2871851 49.2884168,48.1525349 64.0507776,49.5632062 C88.0898142,51.8603441 101.948618,74.06601 106.140479,89.4653416 C110.503435,90.2310542 113.58317,90.9116876 128.725196,92.528192 C127.61307,95.5910425 122.137987,102.737694 97.0723723,99.5046848 C83.3846646,97.5195039 63.8511652,96.5269135 38.471874,96.5269135 L25.7251962,74.06601 C38.9566469,65.4446531 62.254266,69.5851732 95.6180534,86.4875703 C86.6354952,80.9574236 89.0308441,82.4037696 82.2725384,78.2348898 C69.0981198,69.3866551 49.0522042,65.6057485 40.6961264,65.9834879 C40.7562992,65.6975717 40.8028865,65.3420214 40.8491192,64.9305642 Z" id="Path-3" stroke="#00ADD8" stroke-width="0.1" fill="url(#linearGradient-1)" fill-rule="nonzero" transform="translate(69.937903, 59.710977) rotate(-9.000000) translate(-69.937903, -59.710977) "></path>
    </g>
</svg>